<svg xmlns="http://www.w3.org/2000/svg" viewBox="0 0 48 48" width="48" height="48">
  <defs>
    <linearGradient id="hex-grad" x1="0" y1="0" x2="1" y2="1">
      <stop offset="0%" stop-color="#6366f1"/>
      <stop offset="50%" stop-color="#818cf8"/>
      <stop offset="100%" stop-color="#3b82f6"/>
    </linearGradient>
    <linearGradient id="inner-grad" x1="0" y1="0" x2="0" y2="1">
      <stop offset="0%" stop-color="#c7d2fe"/>
      <stop offset="100%" stop-color="#e0e7ff"/>
    </linearGradient>
  </defs>
  <!-- Hexagonal background -->
  <path d="M24 2 L44 14 L44 34 L24 46 L4 34 L4 14 Z" fill="url(#hex-grad)" stroke="none"/>
  <!-- Inner hexagonal cutout for depth -->
  <path d="M24 8 L38 16 L38 32 L24 40 L10 32 L10 16 Z" fill="url(#inner-grad)" opacity="0.15"/>
  <!-- Stylized G letterform -->
  <path d="M30 16 C26.5 13.5 21.5 13.5 18 16 C14.5 18.5 14 23 14 24 C14 28 16 31 20 33 C23 34.5 27 34.5 30 33 L30 26 L24 26 L24 23 L30 23 Z"
        fill="white" opacity="0.95"/>
  <!-- Accent dot -->
  <circle cx="36" cy="12" r="3" fill="#a78bfa" opacity="0.8"/>
</svg>
